<svg
  xmlns="http://www.w3.org/2000/svg"
  xml:space="preserve"
  width="1052.3625"
  height="744.09998"
  viewBox="0 0 1052.3625 744.09998">
  <g
    transform="matrix(1.25,0,0,-1.25,0,744.1)">
    <g
      transform="matrix(1.6546305,0,0,1.3584931,-273.47584,-190.95528)">
      <g transform="translate(560.539,325.7008)">
        <path
        d="m 0,0 27.275,-28.599 -52.116,15.247 z"
        style="fill:#914f4f;" />
      </g>
      <g transform="translate(548.3459,469.683)" >
        <path
        d="m 0,0 -15.454,-86.204 -18.542,11.49 4.751,31.612 -8.65,-5.877 -17.955,-12.201 -18.384,11.381 z"
        style="fill:#449a45;" />
      </g>
      <g transform="translate(480.2619,436.6964)" >
        <path
        d="m 0,0 18.948,13.07 -29.345,-3.741 -11.87,10.653 11.225,1.614 14.394,2.07 26.415,3.808 38.317,5.513 -74.234,-49.799 -9.594,5.952 z"
        style="fill:#3d6932;" /></g>
      <g transform="translate(542.2701,345.6418)" >
        <path
        d="M 0,0 -16.514,-8.816 -13.575,8.36 Z"
        style="fill:#635723;" />
      </g>
      <g transform="translate(540.954,295.0403)" >
        <path
        d="m 0,0 -24.32,-4.04 2.185,11.101 z"
        style="fill:#491a19;" />
      </g>
      <g transform="translate(528.6947,354.0023)" >
        <path
        d="M 0,0 -2.939,-17.176 -15.413,-23.84 -15.992,9.85 Z"
        style="fill:#449a45;" />
      </g>
      <g transform="translate(519.1009,426.5811)" >
        <path
        d="m 0,0 -4.751,-31.612 -2.922,1.804 -0.977,23.931 z"
        style="fill:#0e3644;" />
      </g>
      <g transform="translate(517.4371,302.5399)" >
        <path
        d="M 0,0 18.261,9.809 70.377,-5.438 -3.088,-23.161 -0.803,-11.539 23.517,-7.5 1.382,-0.439 Z"
        style="fill:#7c2828;" />
      </g>
      <g transform="translate(516.6341,291.0007)" >
        <path
        d="m 0,0 -2.285,-11.622 h -0.19 L -2.839,9.586 0.803,11.539 2.185,11.1 Z"
        style="fill:#449a45;" />
      </g>
      <g transform="translate(535.6976,312.3489)" >
        <path
        d="m 0,0 -18.261,-9.809 -3.642,-1.954 -0.513,29.577 12.475,6.663 16.514,8.816 -13.576,8.36 -15.992,9.851 -26.613,16.381 -18.459,11.374 24.866,16.895 18.931,-11.73 2.922,-1.804 L -2.806,71.13 59.98,32.233 24.841,13.352 Z"
        style="fill:#fece09;" />
      </g>
      <g transform="translate(514.1591,279.3788)" >
        <path
        d="M 0,0 0.19,-10.869 -31.157,4.66 -0.364,21.207 Z"
        style="fill:#f26921;" />
      </g>
      <g transform="translate(513.2817,330.1625)" >
        <path
        d="m 0,0 0.513,-29.576 -30.793,-16.547 -29.096,14.411 22.855,12.201 10.272,-5.024 -0.132,10.446 z"
        style="fill:#f8981c;" />
      </g>
      <g transform="translate(486.7599,327.4309)" >
        <path
        d="M 0,0 -0.215,16.928 -0.447,35.296 -0.521,41.281 -0.671,52.803 25.942,36.422 26.522,2.732 0.141,-11.357 Z"
        style="fill:#f26921;" />
      </g>
      <g transform="translate(472.2491,253.3455)" >
        <path
        d="m 0,0 -12.077,-4.354 -1.225,22.118 7.036,3.783 h 0.008 L 3.899,24.461 1.415,25.669 10.753,30.694 42.1,15.165 39.94,14.387 16.142,5.811 12.218,4.404 Z"
        style="fill:#ad4c25;" />
      </g>
      <g transform="translate(512.189,267.7321)">
        <path
        d="m 0,0 -13.12,-74.309 -31.157,16.953 8.575,24.551 7.864,-4.345 1.904,13.492 2.136,15.082 z"
        style="fill:#449a45;" />
      </g>
      <g transform="translate(510.4507,420.7039)">
        <path
        d="m 0,0 0.977,-23.931 -18.931,11.73 z"
        style="fill:#f26921;" />
      </g>
      <g transform="translate(499.2096,449.7669)">
        <path
        d="m 0,0 -18.948,-13.07 -10.396,9.328 z"
        style="fill:#273f1d;" />
      </g>
      <g transform="translate(492.4964,408.5026)">
        <path
        d="m 0,0 -24.866,-16.895 -16.117,9.917 -0.132,3.112 22.73,15.248 z"
        style="fill:#728a39;" />
      </g>
      <g transform="translate(486.9006,316.0739)">
        <path
        d="m 0,0 0.132,-10.446 -10.272,5.024 6.854,3.667 z"
        style="fill:#fece09;" />
      </g>
      <g transform="translate(457.9949,353.4394)">
        <path
        d="m 0,0 28.094,-9.089 0.456,0.008 0.215,-16.928 -71.122,24.022 -16.241,69.252 v 0.008 l 10.786,6.266 5.455,-3.352 v -0.009 l 6.953,-32.779 5.911,-27.863 16.762,-5.422 8.302,-2.682 z"
        style="fill:#914f4f;" />
      </g>
      <g transform="translate(486.3129,362.727)">
        <path
        d="m 0,0 0.232,-18.368 -0.456,-0.008 -28.094,9.088 3.982,10.414 z"
        style="fill:#635723;" />
      </g>
      <g transform="translate(486.255,244.0745)">
        <path
        d="M 0,0 -1.904,-13.493 -9.768,-9.147 -5.107,4.18 Z"
        style="fill:#304a23;" />
      </g>
      <g transform="translate(486.2384,368.7117)">
        <path
        d="m 0,0 -15.918,16.944 -4.462,4.744 1.772,1.208 18.459,-11.373 z"
        style="fill:#5b2d2e;" />
      </g>
      <g transform="translate(460.172,248.9914)">
        <path
        d="M 0,0 1.349,-24.303 12.077,4.354 24.295,8.758 20.976,-0.737 16.315,-14.064 7.74,-38.615 -4.892,-74.748 l -4.876,92.28 8.543,4.586 z"
        style="fill:#0e3d5f;" />
      </g>
      <g transform="translate(483.6144,469.683)">
        <path
        d="m 0,0 v -9.321 l -14.395,-2.069 2.318,7.127 z"
        style="fill:#6d3715;" />
      </g>
      <g transform="translate(458.086,286.6053)">
        <path
        d="m 0,0 -8.973,4.371 -4.809,2.342 9.602,5.132 29.096,-14.411 -9.337,-5.025 z"
        style="fill:#c27129;" />
      </g>
      <g transform="translate(480.2619,436.6964)">
        <path
        d="m 0,0 -15.744,-10.86 -14.461,8.948 -9.114,5.645 -1.722,33.094 15.612,-14.005 3.162,-2.84 11.87,-10.653 z"
        style="fill:#0e3d5f;" />
      </g>
      <g transform="translate(440.8435,328.2338)">
        <path
        d="M 0,0 35.917,-17.582 13.062,-29.783 -34.419,-6.258 -34.427,-6.25 -20.901,6.804 Z"
        style="fill:#f26921;" />
      </g>
      <g transform="translate(464.5178,425.8361)">
        <path
        d="m 0,0 9.594,-5.952 -22.731,-15.247 -0.521,11.779 h 0.008 z"
        style="fill:#55622b;" />
      </g>
      <g transform="translate(473.6646,279.0146)">
        <path
        d="m 0,0 -7.673,-4.122 h -0.009 l -7.036,-3.783 -0.861,15.496 z"
        style="fill:#fece09;" />
      </g>
      <g transform="translate(472.2491,253.3455)">
        <path
        d="m 0,0 -10.728,-28.657 -1.349,24.303 z"
        style="fill:#0e3644;" />
      </g>
      <g transform="translate(461.9765,363.8527)">
        <path
        d="M 0,0 -3.982,-10.413 -8.41,-8.981 -9.569,17.408 3.882,26.547 8.344,21.803 8.327,21.787 Z"
        style="fill:#6d3715;" />
      </g>
      <g transform="translate(465.8587,390.3993)">
        <path
        d="M 0,0 -13.451,-9.139 -14.345,11.125 1.771,1.209 Z"
        style="fill:#449a45;" />
      </g>
      <g transform="translate(464.5178,425.8361)">
        <path
        d="m 0,0 -13.65,-9.42 h -0.008 l -0.803,18.368 z"
        style="fill:#fece09;" />
      </g>
      <g transform="translate(458.086,286.6053)">
        <path
        d="M 0,0 0.861,-15.496 -7.682,-20.082 -8.973,4.362 V 4.371 Z"
        style="fill:#113d48;" />
      </g>
      <g transform="translate(450.4043,266.5236)">
        <path
        d="m 0,0 4.876,-92.28 -69.74,57.423 20.123,10.81 27.076,-23.078 -0.513,10.24 -1.324,26.405 z"
        style="fill:#1f5e97;" />
      </g>
      <g transform="translate(428.6505,300.9423)">
        <path
        d="m 0,0 -29.253,14.254 7.019,6.788 0.008,-0.008 47.481,-23.526 -9.602,-5.132 z"
        style="fill:#ad4c25;" />
      </g>
      <g transform="translate(452.4075,381.2607)">
        <path
        d="m 0,0 1.159,-26.389 -8.303,2.682 -2.574,49.409 8.824,-5.438 z"
        style="fill:#0e3d5f;" />
      </g>
      <g transform="translate(451.5135,401.5245)">
        <path
        d="m 0,0 -8.824,5.438 -1.747,33.467 9.114,-5.645 0.803,-18.368 0.522,-11.78 z"
        style="fill:#113d48;" />
      </g>
      <g transform="translate(450.4043,266.5236)">
        <path
        d="m 0,0 -19.502,-10.48 -1.474,29.337 14.875,7.938 4.81,-2.343 v -0.008 z"
        style="fill:#1d4e59;" />
      </g>
      <g transform="translate(442.6895,406.963)">
        <path
        d="m 0,0 2.574,-49.41 -16.762,5.422 -5.91,27.863 -1.879,29.659 z"
        style="fill:#1f5e97;" />
      </g>
      <g transform="translate(444.3036,293.3185)">
        <path
        d="M 0,0 -14.875,-7.938 -15.653,7.624 Z"
        style="fill:#1f5e97;" />
      </g>
      <g transform="translate(440.9429,440.4297)">
        <path
        d="m 0,0 1.747,-33.467 -21.978,13.534 -0.769,12.16 -9.76,-5.678 -25.835,15.909 27.681,15.455 z"
        style="fill:#1f4e60;" />
      </g>
      <g transform="translate(440.9429,440.4297)">
        <path
        d="M 0,0 -28.914,17.913 -1.722,33.094 Z"
        style="fill:#1f5e97;" />
      </g>
      <g transform="translate(432.2265,229.6382)">
        <path
        d="m 0,0 0.513,-10.24 -27.076,23.079 2.028,1.092 z"
        style="fill:#0e3644;" />
      </g>
      <g transform="translate(430.902,256.044)">
        <path
        d="m 0,0 1.324,-26.406 -24.535,13.932 z"
        style="fill:#449a45;" />
      </g>
      <g transform="translate(428.6505,300.9423)">
        <path
        d="m 0,0 0.778,-15.562 -9.577,-5.116 -16.191,22.549 -6.995,9.743 2.732,2.64 z"
        style="fill:#304a23;" />
      </g>
      <g transform="translate(374.8703,525.9879)">
        <path
        d="M 0,0 49.037,-53.499 39.625,-57 l -14.138,16.721 4.553,-20.289 -2.691,-1.001 -14.701,9.105 v 0.008 z"
        style="fill:#914f4f;" />
      </g>
      <g transform="translate(419.9424,432.6569)">
        <path
        d="m 0,0 0.77,-12.16 -5.074,3.121 v 0.008 l -5.455,3.353 z"
        style="fill:#fece09;" />
      </g>
      <g transform="translate(403.6602,302.813)">
        <path
        d="m 0,0 16.191,-22.548 -12.4,-6.623 -17.606,9.222 13.443,19.676 z"
        style="fill:#6d3715;" />
      </g>
      <g transform="translate(400.3574,485.7087)">
        <path
        d="M 0,0 14.138,-16.721 4.553,-20.289 Z"
        style="fill:#5b2d2e;" />
      </g>
      <g transform="translate(374.3157,290.9842)">
        <path
        d="m 0,0 15.529,-8.12 17.607,-9.222 -29.717,-15.868 -28.401,16.332 0.919,29.485 10.645,-5.579 z"
        style="fill:#449a45;" />
      </g>
      <g transform="translate(404.9101,465.42)">
        <path
        d="m 0,0 9.586,3.568 9.411,3.501 86.121,32.068 V -1.25 L 78.704,-5.058 V 4.263 L 66.627,0 49.923,-5.902 34.311,8.104 7.119,-7.077 -2.69,-1.002 Z"
        style="fill:#f26921;" />
      </g>
      <g transform="translate(396.6655,312.5558)">
        <path
        d="m 0,0 6.995,-9.743 -0.373,-0.273 -13.443,-19.676 -15.529,8.12 z"
        style="fill:#635723;" />
      </g>
      <g transform="translate(399.3971,315.1964)">
        <path
        d="M 0,0 -2.732,-2.641 -25.081,-24.212 -38.5,-17.185 16.241,36.256 87.363,12.234 87.504,0.877 84.217,-0.877 41.446,13.037 20.545,19.842 7.02,6.788 Z"
        style="fill:#7c2828;" />
      </g>
      <g transform="translate(391.7982,387.0551)">
        <path
        d="m 0,0 2.26,-8.998 -23.732,-15.603 -17.938,9.072 0.703,22.267 15.505,9.014 9.627,-17.167 z"
        style="fill:#383116;" />
      </g>
      <g transform="translate(396.6324,367.8343)">
        <path
        d="m 0,0 -2.574,10.223 -2.26,8.998 -6.424,25.503 14.023,8.154 V 52.87 l 16.241,-69.252 -54.741,-53.44 -10.645,5.579 0.091,2.864 h 0.008 l 19.668,20.214 29.378,30.205 z"
        style="fill:#aa3b3a;" />
      </g>
      <g transform="translate(374.8703,525.9879)">
        <path
        d="m 0,0 12.648,-52.456 -24.146,14.95 z"
        style="fill:#aa3b3a;" />
      </g>
      <g transform="translate(391.7982,387.0551)">
        <path
        d="m 0,0 -13.575,-1.415 -9.627,17.167 16.779,9.752 z"
        style="fill:#635723;" />
      </g>
      <g transform="translate(384.3483,442.8882)">
        <path
        d="M 0,0 -5.438,-3.038 -6.804,4.189 Z"
        style="fill:#aa3b3a;" />
      </g>
      <g transform="translate(377.544,447.0767)">
        <path
        d="m 0,0 1.366,-7.226 -24.808,-13.849 0.67,21.406 12.458,6.026 L 0,0.008 Z"
        style="fill:#f26921;" />
      </g>
      <g transform="translate(377.7344,257.7741)">
        <path
        d="m 0,0 -15.314,-8.178 -13.509,11.075 0.422,13.435 z"
        style="fill:#1f5e97;" />
      </g>
      <g transform="translate(370.3259,362.4538)">
        <path
        d="m 0,0 -18.608,-12.234 0.67,21.306 z"
        style="fill:#f26921;" />
      </g>
      <g transform="translate(367.23,453.4339)">
        <path
        d="m 0,0 -12.458,-6.026 0.422,13.435 z"
        style="fill:#635723;" />
      </g>
      <g transform="translate(353.0917,393.7932)">
        <path
        d="M 0,0 1.01,32.208 25.818,46.057 31.257,49.095 57.091,33.185 46.305,26.919 32.283,18.766 15.504,9.014 Z"
        style="fill:#1f5e97;" />
      </g>
      <g transform="translate(370.0196,326.6693)">
        <path
        d="m 0,0 -19.668,-20.214 h -0.008 l 0.223,7.061 z"
        style="fill:#051b31;" />
      </g>
      <g transform="translate(348.9115,260.6713)">
        <path
        d="M 0,0 13.509,-11.076 -0.588,-18.608 Z"
        style="fill:#7c2828;" />
      </g>
      <g transform="translate(370.0196,326.6693)">
        <path
        d="m 0,0 -19.453,-13.153 0.787,25.147 45.279,29.171 2.765,-10.96 z"
        style="fill:#449a45;" />
      </g>
      <g transform="translate(394.058,378.0573)">
        <path
        d="m 0,0 2.574,-10.223 -45.279,-29.171 0.356,11.093 0.009,0.463 18.608,12.235 z"
        style="fill:#3d6932;" />
      </g>
      <g transform="translate(350.567,313.5161)">
        <path
        d="M 0,0 -0.224,-7.061 -0.315,-9.925 -8.41,-5.687 Z"
        style="fill:#fece09;" />
      </g>
      <g transform="translate(326.363,384.696)">
        <path
        d="m 0,0 26.025,-13.17 -0.67,-21.307 -0.406,-0.273 -25.653,12.831 z"
        style="fill:#f8981c;" />
      </g>
      <g transform="translate(330.3612,508.9359)">
        <path
        d="m 0,0 33.011,-20.454 24.146,-14.95 v -0.008 l 14.702,-9.105 9.809,-6.076 -27.681,-15.455 -6.804,4.189 v 0.008 l -10.314,6.349 -12.036,7.409 -0.422,-13.435 -0.671,-21.406 -1.009,-32.209 -0.704,-22.267 -26.025,13.17 0.795,24.668 0.091,2.665 0.728,22.755 z"
        style="fill:#fece09;" />
      </g>
      <g transform="translate(342.1569,343.9283)">
        <path
        d="M 0,0 9.155,6.018 9.552,5.828 9.197,-5.265 -17.83,-22.681 l 0.356,11.192 h 0.008 z"
        style="fill:#55622b;" />
      </g>
      <g transform="translate(342.1569,343.9283)">
        <path
        d="m 0,0 -17.466,-11.489 0.637,19.833 z"
        style="fill:#fece09;" />
      </g>
      <g transform="translate(325.6594,362.7766)">
        <path
        d="m 0,0 25.653,-12.83 -9.156,-6.018 -16.828,8.344 z"
        style="fill:#c27129;" />
      </g>
      <g transform="translate(322.5056,264.6942)">
        <path
        d="m 0,0 0.654,20.33 0.132,4.048 26.042,-14.966 -0.422,-13.435 -0.588,-18.608 14.097,7.532 15.314,8.179 29.717,15.868 12.4,6.622 9.577,5.116 1.473,-29.336 -23.21,-12.475 -2.028,-1.092 -20.123,-10.811 h -0.009 l -65.211,-35.048 1.241,38.69 z"
        style="fill:#fece09;" />
      </g>
      <g transform="translate(324.3267,321.2474)">
        <path
        d="m 0,0 27.027,17.416 -0.787,-25.147 -8.41,-5.687 8.096,-4.238 -0.919,-29.485 -26.042,14.966 z"
        style="fill:#728a39;" />
      </g>
      <g transform="translate(310.7265,399.4965)">
        <path
        d="M 0,0 16.431,9.867 15.637,-14.801 -6.225,-3.733 Z"
        style="fill:#1f5e97;" />
      </g>
      <g transform="translate(323.292,289.072)">
        <path
        d="m 0,0 -9.362,5.389 -8.311,4.776 -8.162,4.693 26.87,17.317 z"
        style="fill:#449a45;" />
      </g>
      <g transform="translate(313.9299,294.4608)">
        <path
        d="M 0,0 9.362,-5.389 9.23,-9.437 -8.344,-25.951 Z"
        style="fill:#491a19;" />
      </g>
      <g transform="translate(327.9772,434.7843)">
        <path
        d="M 0,0 -12.839,-4.685 V 0.704 Z"
        style="fill:#3d6932;" />
      </g>
      <g transform="translate(282.4085,227.3204)">
        <path
        d="M 0,0 23.211,71.917 31.521,67.14 23.178,41.19 40.751,57.704 40.097,37.374 Z"
        style="fill:#aa3b3a;" />
      </g>
      <g transform="translate(311.7281,405.9531)">
        <path
        d="M 0,0 15.521,6.076 15.43,3.41 -1.002,-6.457 0.083,-0.224 Z"
        style="fill:#3d6932;" />
      </g>
      <g transform="translate(311.8109,405.7296)">
        <path
        d="m 0,0 -1.084,-6.233 -6.225,-3.733 -8.195,4.147 15.421,6.043 z"
        style="fill:#6d3715;" />
      </g>
      <g transform="translate(305.9088,361.8992)">
        <path
        d="M 0,0 19.419,-9.627 18.782,-29.46 h -0.008 l -0.356,-11.192 -26.87,-17.317 0.332,2.26 3.195,21.911 0.77,5.323 2.458,16.861 z"
        style="fill:#3d6932;" />
      </g>
      <g transform="translate(282.4085,227.3204)">
        <path
        d="M 0,0 40.097,37.374 39.154,7.988 Z"
        style="fill:#7c2828;" />
      </g>
      <g transform="translate(304.2119,350.2856)">
        <path
        d="M 0,0 -18.517,21.646 1.697,11.614 Z"
        style="fill:#6d3715;" />
      </g>
      <g transform="translate(283.0541,356.0138)">
        <path
        d="m 0,0 18.699,-22.59 -0.77,-5.322 -25.884,22.639 z"
        style="fill:#0e3644;" />
      </g>
      <g transform="translate(235.5981,356.0303)">
        <path
        d="M 0,0 32.167,18.459 47.456,-0.017 39.501,-5.289 65.385,-27.929 62.19,-49.84 Z"
        style="fill:#1f5e97;" />
      </g>
      <g transform="translate(243.404,403.9168)">
        <path
        d="m 0,0 82.255,-41.14 -0.331,-10.505 -19.419,9.627 -20.214,10.033 18.517,-21.646 -2.459,-16.862 -18.699,22.59 -15.289,18.476 z"
        style="fill:#ad4c25;" />
      </g>
      <g transform="translate(325.6594,362.7766)">
        <path
        d="M 0,0 -82.255,41.14 -10.521,67.322 2.318,72.008 1.589,49.252 -13.931,43.176 -29.353,37.134 -21.158,32.987 0.704,21.919 Z"
        style="fill:#f26921;" />
      </g>
    </g></g></svg>
